/* XPM */
static char *UndoBG[] = {
/* columns rows colors chars-per-pixel */
"45 40 32 1",
"  c None",
". c #ECF2F5",
"X c #EAEEF0",
"o c #E3EEF3",
"O c #D9EAF2",
"+ c #DFE7EA",
"@ c #CEE7F1",
"# c #C5E3F0",
"$ c #D3DFE5",
"% c #BBDFEE",
"& c #C8D7DF",
"* c #B2DBED",
"= c #BCCFD9",
"- c #94CFE9",
"; c #B1C9D3",
": c #A5C1CD",
"> c #77C4E7",
", c #67C3EC",
"< c #6DC0E5",
"1 c #5DBFEB",
"2 c #82AABC",
"3 c #5F93AB",
"4 c #538BA5",
"5 c #4A88A5",
"6 c #3F819F",
"7 c #000000",
"8 c #000000",
"9 c #000000",
"0 c #000000",
"q c #000000",
"w c #000000",
"e c #000000",
/* pixels */
"  66666666666666666666666666666666666        ",
" 6666666666666666666666666666666666666       ",
"666666666666666666666666666666666666666      ",
"6666666666666666666666666666666666666666     ",
"66666666666666666666666666666666666666666    ",
"666666666666666666666666666666666666666666   ",
"666666666666666666666666666666666666666666   ",
"6666666666666666666666666666666666666666666  ",
"66666666666666666666666666666666666666666666 ",
"666666666666666666666666666666666666666666666",
"666666666666666666666666666666666666666666666",
"66666666666666666666666666666666666666666666 ",
"6666666666666666666666666666666666666666666  ",
"666666666666666666666666666666666666666666   ",
"666666666666666666666666666666666666666666   ",
"66666666666666666666666666666666666666666    ",
"6666666666666666666666666666666666666666     ",
"666666666666666666666666666666666666666      ",
" 6666666666666666666666666666666666666       ",
"  66666666666666666666666666666666666        ",
"  <1111111111111111111111111111111111        ",
" 1111111111111111111111111111111111111       ",
" 11111111111111111111111111111111111111      ",
"111111111111111111111111111111111111111,     ",
"1111111111111111111111111111111111111111>    ",
"11111111111111111111111111111111111111111    ",
"111111111111111111111111111111111111111111   ",
"1111111111111111111111111111111111111111111  ",
"1111111111111111111111111111111111111111111  ",
"11111111111111111111111111111111111111111111>",
"11111111111111111111111111111111111111111111>",
"1111111111111111111111111111111111111111111  ",
"1111111111111111111111111111111111111111111  ",
"111111111111111111111111111111111111111111   ",
"11111111111111111111111111111111111111111    ",
"1111111111111111111111111111111111111111>    ",
"111111111111111111111111111111111111111,     ",
" 11111111111111111111111111111111111111      ",
" 1111111111111111111111111111111111111       ",
"  <1111111111111111111111111111111111        "
};
